<svg xmlns="http://www.w3.org/2000/svg" id="Capa_1" viewBox="0 0 906.78 709.98"><defs><style>.cls-1{fill:#fff;}.cls-2{fill:#f7a800;}.cls-3{fill:#06f912;}</style></defs><g><g><path d="M407.52,533.36h91.76c6.89,0,12.47,5.59,12.47,12.47h0c0,6.89-5.59,12.47-12.47,12.47h-91.76c-6.89,0-12.47-5.59-12.47-12.47h0c0-6.89,5.59-12.47,12.47-12.47Z"></path><path d="M363.53,483.55h179.73c6.89,0,12.47,5.59,12.47,12.47h0c0,6.89-5.59,12.47-12.47,12.47h-179.73c-6.89,0-12.47-5.59-12.47-12.47h0c0-6.89,5.59-12.47,12.47-12.47Z"></path><path d="M465.87,420.55v-122.38c0-6.89-5.59-12.47-12.47-12.47h0c-6.88,.01-12.46,5.59-12.47,12.47v122.38c0,6.89-5.59,12.47-12.47,12.47h-115.7c-6.89,0-12.47,5.59-12.47,12.47h0c.05,6.85,5.62,12.38,12.47,12.36h281.3c6.88,.01,12.46-5.55,12.47-12.43v-.02h0c0-6.89-5.59-12.47-12.47-12.47h-115.72c-6.85-.01-12.4-5.54-12.45-12.39Z"></path></g><path d="M453.39,676.14c-67.88,0-131.7-26.43-179.7-74.43-48-48-74.43-111.82-74.43-179.7s26.43-131.7,74.43-179.7c48-48,111.82-74.43,179.7-74.43,22.68,0,45.19,2.99,66.88,8.89,5.86,1.6,9.32,7.64,7.73,13.5-1.6,5.86-7.65,9.32-13.5,7.73-19.81-5.39-40.37-8.12-61.1-8.12-128,0-232.13,104.13-232.13,232.13s104.13,232.13,232.13,232.13c69.53,0,134.82-30.79,179.13-84.48,3.87-4.69,10.8-5.35,15.49-1.48,4.69,3.87,5.35,10.8,1.48,15.49-48.5,58.77-119.98,92.48-196.1,92.48Z"></path><path d="M672.47,538.56c-1.6,0-3.23-.35-4.77-1.1-5.47-2.64-7.77-9.21-5.13-14.69,1.38-2.87,2.72-5.79,3.97-8.68,2.41-5.58,8.89-8.14,14.46-5.73,5.58,2.41,8.14,8.89,5.73,14.46-1.37,3.17-2.84,6.37-4.35,9.5-1.9,3.93-5.82,6.22-9.92,6.22Zm14.35-37.3c-1.02,0-2.06-.14-3.09-.44-5.83-1.7-9.18-7.81-7.48-13.64,.89-3.04,1.72-6.14,2.48-9.22,1.46-5.9,7.42-9.49,13.32-8.04,5.9,1.46,9.5,7.42,8.04,13.32-.83,3.37-1.75,6.76-2.72,10.1-1.4,4.8-5.79,7.92-10.55,7.92Zm8-39.15c-.44,0-.88-.03-1.32-.08-6.03-.72-10.34-6.2-9.62-12.23,.37-3.13,.69-6.33,.94-9.5,.47-6.06,5.75-10.58,11.82-10.11,6.06,.47,10.58,5.76,10.11,11.82-.27,3.47-.62,6.98-1.03,10.41-.67,5.59-5.42,9.69-10.91,9.69Zm1.47-39.94c-5.85,0-10.72-4.61-10.98-10.52-.14-3.18-.35-6.39-.61-9.53-.51-6.05,3.98-11.38,10.03-11.89,6.04-.5,11.38,3.98,11.89,10.03,.29,3.44,.52,6.95,.67,10.42,.27,6.07-4.44,11.21-10.5,11.47-.17,0-.33,.01-.49,.01Z"></path><circle class="cls-2" cx="706.32" cy="199.99" r="155.15"></circle><g><path class="cls-1" d="M765.01,248.51c-.5-.66-1.07-1.23-1.68-1.72,14.01-13.39,23.06-30.97,25.73-50.46,3.13-22.81-2.8-45.47-16.71-63.81-28.71-37.86-82.88-45.31-120.74-16.6-37.87,28.71-45.31,82.88-16.6,120.74,13.91,18.34,34.13,30.17,56.93,33.3,3.98,.55,7.96,.82,11.91,.82,15.54,0,30.67-4.2,44.03-12.22,.31,.71,.7,1.39,1.18,2.03l28.05,36.99c1.97,2.59,4.95,3.96,7.98,3.96,2.1,0,4.23-.66,6.03-2.03,4.4-3.34,5.26-9.61,1.93-14.01l-28.05-36.99Zm-70.34,1.65c-17.51-2.41-33.04-11.49-43.72-25.58-22.05-29.08-16.33-70.67,12.74-92.72,11.94-9.05,25.97-13.42,39.91-13.42,20.02,0,39.81,9.02,52.81,26.17,10.68,14.09,15.24,31.49,12.83,49-2.41,17.51-11.49,33.04-25.58,43.72-14.09,10.68-31.49,15.24-49,12.83Z"></path><path class="cls-1" d="M750.22,155.19c-.83-1.31-1.73-2.61-2.68-3.86-8.88-11.72-21.8-19.27-36.36-21.27-14.57-2.01-29.04,1.79-40.75,10.67-3.96,3-4.74,8.65-1.73,12.61,3,3.96,8.65,4.74,12.61,1.73,7.88-5.98,17.62-8.53,27.43-7.18,9.8,1.35,18.49,6.43,24.47,14.31,.65,.85,1.26,1.73,1.81,2.61,1.71,2.71,4.63,4.19,7.61,4.19,1.64,0,3.31-.45,4.8-1.4,4.2-2.66,5.45-8.22,2.79-12.42Z"></path><ellipse class="cls-1" cx="753.47" cy="183.99" rx="8.28" ry="8.39"></ellipse></g></g><path class="cls-3" d="M2740.48,1334.76H-1981.07V-2200.9H2740.48V1334.76Zm-4715.55-6H2734.48V-2194.9H-1975.07V1328.76Z"></path></svg>